<svg width="78" height="81" viewBox="0 0 78 81" fill="none" xmlns="http://www.w3.org/2000/svg">
<path d="M64.0155 35.6327H14.0309C12.2765 35.6327 10.8494 34.2146 10.8494 32.4712V22.9991C10.8494 21.2557 12.2765 19.8369 14.0309 19.8369H64.0149C65.7687 19.8369 67.1952 21.2557 67.1952 22.9991V32.4718C67.1958 34.2146 65.7693 35.6327 64.0155 35.6327ZM14.0309 22.2601C13.6275 22.2601 13.2869 22.5987 13.2869 22.9991V32.4718C13.2869 32.8788 13.6208 33.2102 14.0309 33.2102H64.0149C64.4244 33.2102 64.7577 32.8788 64.7577 32.4718V22.9991C64.7577 22.5981 64.4171 22.2601 64.0149 22.2601H14.0309Z" fill="white"/>
<path d="M57.0446 68.0821H20.9989C17.6217 68.0821 14.874 65.3512 14.874 61.9933V34.421C14.874 33.7523 15.42 33.2095 16.0928 33.2095C16.7655 33.2095 17.3115 33.7523 17.3115 34.421V61.9933C17.3115 64.0148 18.966 65.6589 20.9989 65.6589H57.0446C59.0769 65.6589 60.7307 64.0148 60.7307 61.9933V34.421C60.7307 33.7523 61.2767 33.2095 61.9495 33.2095C62.6222 33.2095 63.1682 33.7523 63.1682 34.421V61.9933C63.1682 65.3512 60.4212 68.0821 57.0446 68.0821Z" fill="white"/>
<path d="M39.0225 68.0821C38.3497 68.0821 37.8037 67.5399 37.8037 66.8705V34.421C37.8037 33.7523 38.3497 33.2095 39.0225 33.2095C39.6952 33.2095 40.2412 33.7523 40.2412 34.421V66.8699C40.2412 67.5399 39.6958 68.0821 39.0225 68.0821Z" fill="white"/>
<path d="M23.8112 22.2556C19.9965 20.2008 18.573 15.4442 20.6382 11.6513C22.7022 7.86033 27.4864 6.44461 31.3029 8.4958C37.1169 11.6265 40.2564 20.3607 40.3868 20.7308L38.0877 21.5347C38.0584 21.4523 35.1255 13.31 30.1432 10.627C27.5077 9.21063 24.2061 10.1884 22.782 12.8047C21.3567 15.4236 22.339 18.7069 24.9733 20.1251L23.8112 22.2556Z" fill="white"/>
<path d="M54.2313 22.2553L53.071 20.1242C54.3476 19.4366 55.2782 18.2971 55.6925 16.9153C56.1063 15.5329 55.9533 14.073 55.2617 12.8051C54.5719 11.536 53.4263 10.6115 52.0363 10.2002C50.6457 9.78889 49.1783 9.94034 47.9023 10.6267C42.92 13.3091 39.9871 21.4515 39.9579 21.5338L37.6587 20.73C37.7891 20.3598 40.928 11.6256 46.742 8.49554C48.5897 7.50084 50.7182 7.28155 52.7316 7.87764C54.7468 8.47313 56.4061 9.81373 57.4061 11.6511C58.4073 13.4878 58.6285 15.6026 58.0289 17.6059C57.4286 19.6087 56.0801 21.2594 54.2313 22.2553Z" fill="white"/>
<path d="M61.9495 51.8567H16.0928C15.42 51.8567 14.874 51.3142 14.874 50.6456C14.874 49.9771 15.42 49.4346 16.0928 49.4346H61.9495C62.6222 49.4346 63.1682 49.9771 63.1682 50.6456C63.1682 51.3142 62.6228 51.8567 61.9495 51.8567Z" fill="white"/>
</svg>
